<?xml version="1.0" encoding="utf-8"?>
<!-- Generator: Adobe Illustrator 22.1.0, SVG Export Plug-In . SVG Version: 6.00 Build 0)  -->
<svg version="1.1" id="Capa_1" xmlns="http://www.w3.org/2000/svg" xmlns:xlink="http://www.w3.org/1999/xlink" x="0px" y="0px"
	 viewBox="0 0 35 35" style="enable-background:new 0 0 35 35;" xml:space="preserve">
<style type="text/css">
	.st0{fill:#FFFFFF;}
	.st1{fill:#FF5500;}
	.st2{fill:#E6E6E6;}
</style>
<g>
	<polygon points="16.5,28 16.5,2 6.5,2 9.5,5 9.5,30 6.5,33 9.5,33 9.5,33 29,33 31.5,28 	"/>
	<path d="M7.9,29.1v-2.4c-0.3-0.3-0.5-0.7-0.8-1.1c-0.7-1.1-1.3-2.4-1.6-3.7c-0.1-0.6-0.3-1.2-0.3-1.7c0-0.3,0-0.5-0.1-0.8l0-0.3
		c0-0.9,0.1-1.9,0.4-3.1c0.2-0.9,0.5-1.7,0.8-2.4c0.3-0.7,0.7-1.4,1.3-2.1c0.1-0.1,0.1-0.1,0.2-0.2V8.8c0,0,0,0,0,0
		c-0.5,0.5-1,1.1-1.5,1.7c-0.6,0.8-1.1,1.6-1.5,2.4c-0.4,0.9-0.7,1.8-0.9,2.7c-0.3,1.1-0.5,2.3-0.4,3.5c0,0.4,0.1,0.8,0.1,1.2
		c0.1,0.7,0.2,1.3,0.4,2c0.4,1.5,0.9,3,1.8,4.3c0.5,0.7,1,1.5,1.7,2.1C7.6,28.8,7.7,29,7.9,29.1z"/>
	<path d="M21.8,7.4c0.7,0.2,1.5,0.6,2.2,1c0.8,0.5,1.5,1,2.1,1.6c0.4,0.4,0.8,0.8,1.1,1.2c0.5,0.6,0.9,1.2,1.2,1.8
		c0.3,0.5,0.6,1.1,0.8,1.7c0.3,0.8,0.5,1.6,0.6,2.4c0.1,0.4,0.1,0.7,0.1,1c0,0.5,0,0.9,0,1.3c0,0.3,0,0.7-0.1,1
		c0,0.3-0.1,0.6-0.1,0.9c-0.1,0.7-0.3,1.3-0.6,2c-0.4,0.9-0.8,1.8-1.4,2.7c-0.1,0.1-0.1,0.2-0.2,0.2h2c0.5-0.7,0.9-1.5,1.2-2.3
		c0.3-0.7,0.5-1.5,0.7-2.3c0.1-0.3,0.1-0.7,0.2-1c0-0.4,0.1-0.8,0.1-1.2c0-0.5,0-1,0-1.4c0-0.4-0.1-0.8-0.1-1.2
		c-0.1-0.9-0.4-1.9-0.7-2.8c-0.2-0.7-0.5-1.3-0.9-1.9c-0.4-0.7-0.9-1.4-1.3-2c-0.4-0.5-0.8-1-1.3-1.4c-0.7-0.7-1.5-1.3-2.4-1.8
		c-0.8-0.5-1.6-0.9-2.5-1.2c-1.3-0.4-2.6-0.7-4-0.8c0,0-0.1,0-0.1,0v1.6c0,0,0,0,0,0C19.3,6.7,20.5,7,21.8,7.4z"/>
</g>
</svg>
