<?xml version="1.0" encoding="iso-8859-1"?>
<!-- Generator: Adobe Illustrator 18.0.0, SVG Export Plug-In . SVG Version: 6.00 Build 0)  -->
<!DOCTYPE svg PUBLIC "-//W3C//DTD SVG 1.1//EN" "http://www.w3.org/Graphics/SVG/1.1/DTD/svg11.dtd">
<svg version="1.1" id="Capa_1" xmlns="http://www.w3.org/2000/svg" xmlns:xlink="http://www.w3.org/1999/xlink" x="0px" y="0px"
	 viewBox="0 0 144.773 144.773" style="enable-background:new 0 0 144.773 144.773;" xml:space="preserve">
<g>
	<circle style="fill:#FDC20E;" cx="72.387" cy="72.386" r="72.386"/>
	<g>
		<defs>
			<circle id="SVGID_1_" cx="72.387" cy="72.386" r="72.386"/>
		</defs>
		<clipPath id="SVGID_2_">
			<use xlink:href="#SVGID_1_"  style="overflow:visible;"/>
		</clipPath>
		<g style="clip-path:url(#SVGID_2_);">
			<g>
				<path style="fill:#F1C9A5;" d="M107.053,116.94c-4.666-8.833-34.666-14.376-34.666-14.376s-30,5.543-34.666,14.376
					c-3.449,12.258-6.334,27.833-6.334,27.833h41h41C113.387,144.773,111.438,128.073,107.053,116.94z"/>
				<path style="fill:#E4B692;" d="M72.387,102.564c0,0,30,5.543,34.666,14.376c4.386,11.133,6.334,27.833,6.334,27.833h-41V102.564
					z"/>
				<rect x="64.22" y="84.606" style="fill:#F1C9A5;" width="16.334" height="27.336"/>
				<rect x="72.387" y="84.606" style="fill:#E4B692;" width="8.167" height="27.336"/>
				<path style="opacity:0.1;fill:#DDAC8C;" d="M64.22,97.273c1.469,4.217,7.397,6.634,11.751,6.634
					c1.575,0,3.107-0.264,4.583-0.747V84.606H64.22V97.273z"/>
				<path style="fill:#F1C9A5;" d="M93.387,67.357c0-17.074-9.402-26.783-21-26.783c-11.598,0-21,9.709-21,26.783
					c0,22.966,9.402,30.917,21,30.917C83.984,98.274,93.387,89.366,93.387,67.357z"/>
				<path style="fill:#E4B692;" d="M90.19,79.197c-3.807-0.399-6.377-4.5-5.732-9.156c0.637-4.66,4.242-8.12,8.051-7.724
					c3.805,0.396,6.371,4.496,5.729,9.156C97.599,76.134,93.997,79.591,90.19,79.197z"/>
				<path style="fill:#F1C9A5;" d="M46.685,71.474c-0.643-4.66,1.924-8.76,5.727-9.156c3.811-0.397,7.416,3.063,8.055,7.724
					c0.642,4.656-1.93,8.758-5.734,9.156C50.925,79.591,47.323,76.134,46.685,71.474z"/>
				<path style="fill:#E4B692;" d="M93.387,67.357c0-17.074-9.402-26.783-21-26.783v57.7C83.984,98.274,93.387,89.366,93.387,67.357
					z"/>
			</g>
			<path style="fill:#3595BB;" d="M107.053,116.94c-2.726-5.158-14.082-9.191-23.065-11.656l-11.601,13.26l-11.601-13.26
				c-8.983,2.465-20.34,6.498-23.065,11.656c-3.449,12.258-6.334,27.833-6.334,27.833h41h41
				C113.387,144.773,111.438,128.073,107.053,116.94z"/>
			<path style="fill:#262421;" d="M54.766,75.53c0,0,14.835-10.124,16.581-15.708c-0.175,5.061,0,9.599,0,9.599
				s14.487-14.311,13.09-26.005c-16.406-8.728-29.147,1.396-32.115,6.108C49.354,54.236,48.656,67.327,54.766,75.53z"/>
			<path style="fill:#262421;" d="M82.342,48.127c0,0,6.808,8.205,8.204,24.611c4.887-7.157,10.123-27.927-6.109-29.322
				C83.04,46.033,82.342,48.127,82.342,48.127z"/>
			<path style="fill:#FFFFFF;" d="M87.385,121.332l-9.077-8.437l-5.936,5.648l9.865-14.084c0,0,3.217,0.356,4.361,3.86
				C86.956,113.826,87.385,121.332,87.385,121.332z"/>
			<polygon style="fill:#27AAE1;" points="69.179,144.773 72.387,144.773 72.387,118.544 69.179,115.505 			"/>
			<path style="fill:#FFFFFF;" d="M57.359,121.332l9.077-8.437l5.936,5.648l-9.865-14.084c0,0-3.217,0.356-4.361,3.86
				C57.788,113.826,57.359,121.332,57.359,121.332z"/>
		</g>
	</g>
</g>
<g>
</g>
<g>
</g>
<g>
</g>
<g>
</g>
<g>
</g>
<g>
</g>
<g>
</g>
<g>
</g>
<g>
</g>
<g>
</g>
<g>
</g>
<g>
</g>
<g>
</g>
<g>
</g>
<g>
</g>
</svg>
